<svg width="512" height="512" viewBox="0 0 512 512" fill="none" xmlns="http://www.w3.org/2000/svg">
<rect width="512" height="512" rx="256" fill="#183228"/>
<path d="M109.818 204.27L109.819 204.273L155.502 220.594L255.999 256.499L218.312 160.75L201.181 117.228L109.819 117.228L109.818 204.27Z" fill="#A8A8A8" fill-opacity="0.5"/>
<path d="M402.181 204.272L402.182 204.269L402.181 117.227L310.819 117.227L293.688 160.75L255.999 256.499L356.498 220.594L402.181 204.272Z" fill="#A8A8A8" fill-opacity="0.5"/>
<path d="M402.182 308.731L402.181 308.728L356.498 292.406L255.999 256.499L293.688 352.25L310.819 395.773L402.181 395.773L402.182 308.731Z" fill="#A8A8A8" fill-opacity="0.5"/>
<path d="M109.819 308.727L109.818 308.73L109.819 395.772L201.181 395.772L218.312 352.25L255.999 256.499L155.502 292.406L109.819 308.727Z" fill="#A8A8A8" fill-opacity="0.5"/>
<path d="M255.999 117.227V160.75M255.999 256.499V160.75M255.999 256.499L356.502 256.499M255.999 256.499L293.688 160.75M255.999 256.499L356.498 220.594M255.999 256.499L155.498 256.5M255.999 256.499L218.312 160.75M255.999 256.499L155.502 220.594M255.999 256.499L255.999 352.25M255.999 256.499L293.688 352.25M255.999 256.499L356.498 292.406M255.999 256.499L218.312 352.25M255.999 256.499L155.502 292.406M255.999 160.75H293.688M255.999 160.75L218.312 160.75M402.186 256.499H356.502M310.819 117.227L255.999 65L201.181 117.228M310.819 117.227L310.814 117.227L402.181 117.227M310.819 117.227L402.181 117.227M310.819 117.227L293.688 160.75M356.502 256.499L356.498 220.594M356.502 256.499L356.498 292.406M402.182 204.269L402.186 204.272L457 256.499L402.186 308.728L402.182 308.731M402.182 204.269L402.181 204.272L356.498 220.594M402.182 204.269L402.181 117.227M109.814 256.5H155.498M201.181 117.228L201.186 117.228L109.819 117.228M201.181 117.228L109.819 117.228M201.181 117.228L218.312 160.75M155.498 256.5L155.502 220.594M155.498 256.5L155.502 292.406M109.818 204.27L109.814 204.273L55 256.5L109.814 308.727L109.818 308.73M109.818 204.27L109.819 204.273L155.502 220.594M109.818 204.27L109.819 117.228M255.999 395.773V352.25M255.999 352.25H293.688M255.999 352.25L218.312 352.25M310.819 395.773L255.999 448L201.181 395.772M310.819 395.773L310.814 395.773L402.181 395.773M310.819 395.773L402.181 395.773M310.819 395.773L293.688 352.25M402.182 308.731L402.181 308.728L356.498 292.406M402.182 308.731L402.181 395.773M201.181 395.772L201.185 395.772L109.819 395.772M201.181 395.772L109.819 395.772M201.181 395.772L218.312 352.25M109.818 308.73L109.819 308.727L155.502 292.406M109.818 308.73L109.819 395.772" stroke="#F5F5DC" stroke-width="3"/>
<path d="M254.999 395L401 255.999L254.999 117L109 256L254.999 395Z" fill="#39413E" stroke="#F5F5DC" stroke-width="3"/>
</svg>
