<svg width="75" height="48" viewBox="0 0 75 48" fill="none" xmlns="http://www.w3.org/2000/svg"><path d="M.11 47.107V.56h20.18q5.32 0 8.933 1.432Q32.859 3.425 34.7 6.04q1.864 2.613 1.864 6.159 0 2.568-1.137 4.682-1.113 2.113-3.136 3.545-2.022 1.41-4.727 1.955v.454q3 .114 5.454 1.523a10.45 10.45 0 0 1 3.91 3.84q1.454 2.433 1.454 5.728 0 3.818-2 6.796-1.977 2.977-5.636 4.681-3.66 1.705-8.728 1.705zm12.636-10.091h5.909q3.181 0 4.772-1.182 1.59-1.205 1.591-3.545 0-1.636-.75-2.773-.75-1.136-2.136-1.727-1.364-.591-3.296-.591h-6.09zm0-17.636h5.181q1.66 0 2.932-.523 1.274-.524 1.977-1.5.728-1 .728-2.432 0-2.16-1.546-3.295-1.545-1.16-3.909-1.16h-5.364zm49.091 12.454V12.198h12.546v34.909h-11.91V40.47h-.363q-1.136 3.341-3.977 5.227-2.841 1.863-6.75 1.864-3.66 0-6.41-1.682-2.726-1.683-4.25-4.637-1.5-2.955-1.522-6.772V12.198h12.545v19.636q.023 2.591 1.319 4.068 1.318 1.478 3.681 1.478 1.569 0 2.705-.66a4.5 4.5 0 0 0 1.773-1.908q.636-1.25.613-2.978" fill="#fff"/></svg>