<svg width="143" height="144" viewBox="0 0 143 144" fill="none" xmlns="http://www.w3.org/2000/svg">
<circle cx="71.7433" cy="72.0565" r="71.2567" fill="white"/>
<path d="M31.1763 48.4111C35.7521 48.0518 38.1312 50.7714 39.0602 52.2092C41.3827 55.8038 45.3237 63.6993 46.2383 67.2959C47.1529 70.8925 45.814 79.8538 42.5755 81.8338C39.3369 83.8138 35.6761 84.9478 32.2972 83.8239C28.9184 82.7001 20.683 75.7278 21.529 67.5431C22.14 61.6321 23.2915 50.9622 31.1763 48.4111Z" fill="#1E1E24"/>
<path d="M67.0123 22.4687C70.6023 23.6628 73.7568 30.5913 72.3591 44.4716C70.5259 62.6753 57.2209 63.1883 53.842 62.0645C50.4631 60.9406 41.5939 55.874 44.905 40.2784C47.19 29.5153 61.7328 20.7127 67.0123 22.4687Z" fill="#1E1E24"/>
<path d="M90.4539 25.3274C93.3001 24.855 102.758 31.3484 105.798 41.9543C108.837 52.5601 102.65 61.5238 99.1771 64.6799C96.8537 66.2588 90.8838 68.4591 85.5905 64.6289C78.974 59.8413 78.4119 52.3641 79.3277 48.2006C80.2435 44.037 82.4046 30.8728 84.5402 28.2988C86.6757 25.7248 88.8817 25.5883 90.4539 25.3274Z" fill="#1E1E24"/>
<path d="M116.144 58.0946C118.959 59.5014 124.351 64.8693 123.392 75.0859C122.193 87.8566 112.83 94.1487 107.972 93.2386C103.115 92.3285 98.4691 90.7831 96.7102 84.0838C94.9513 77.3844 103.964 63.6853 106.569 62.2001C109.174 60.7149 112.976 57.0409 116.144 58.0946Z" fill="#1E1E24"/>
<path d="M70.9478 65.6377C75.7347 66.0541 85.9841 69.0869 88.6859 77.8873C92.0633 88.8877 96.8499 91.4204 98.8207 93.2518C100.792 95.0832 106.774 100.366 102.197 110.601C97.6198 120.837 89.8053 123.177 84.033 122.197C78.2606 121.218 77.0638 121.29 73.4739 119.391C69.8839 117.491 65.0267 116.581 64.0411 116.724C63.0555 116.866 51.8622 118.787 46.1603 116.89C40.4585 114.994 31.5893 109.222 32.8576 101.883C34.1259 94.5444 35.6046 91.5088 38.2801 89.1064C40.9556 86.7039 52.1497 79.8447 54.8256 74.6204C57.5015 69.3961 67.1464 65.7843 70.9478 65.6377Z" fill="#1E1E24"/>
</svg>
